<svg width="12" height="12" cursor="pointer" viewBox="0 0 12 12" fill="none" xmlns="http://www.w3.org/2000/svg"><path fill-rule="evenodd" clip-rule="evenodd" d="M8.52637 0H0.526367V1.01588H8.52637V0ZM1.41957 1.56289C0.926268 1.56289 0.526367 1.96523 0.526367 2.46155V7.03191C0.526367 7.20933 0.578564 7.38278 0.676381 7.5304L3.37286 11.5998C3.55816 11.8795 3.85836 12.0114 4.15289 11.9992C4.18521 12.0016 4.21775 11.9985 4.24938 11.99C4.50257 11.9521 4.74154 11.806 4.88758 11.5541L7.23965 7.49739C7.31933 7.35995 7.36132 7.20369 7.36132 7.04458V2.46155C7.36132 1.96523 6.96142 1.56289 6.46812 1.56289H1.41957ZM1.53608 3.32114V2.57877H6.35161V5.07939H1.53608V4.33701H3.47782V3.32114H1.53608Z" fill="#000000"></path></svg>
